<?xml version="1.0" standalone="no"?>
<!DOCTYPE svg PUBLIC "-//W3C//DTD SVG 20010904//EN"
 "http://www.w3.org/TR/2001/REC-SVG-20010904/DTD/svg10.dtd">
<svg version="1.0" xmlns="http://www.w3.org/2000/svg"
 width="482.000000pt" height="482.000000pt" viewBox="0 0 482.000000 482.000000"
 preserveAspectRatio="xMidYMid meet">
<metadata>
Created by potrace 1.11, written by Peter Selinger 2001-2013
</metadata>
<g transform="translate(0.000000,482.000000) scale(0.100000,-0.100000)"
fill="#000000" stroke="none">
<path d="M2174 4811 c-10 -2 -24 -7 -31 -13 -7 -6 -14 -5 -18 3 -6 8 -10 8
-15 -2 -6 -8 -29 -12 -70 -10 -34 1 -60 -2 -57 -6 3 -4 -16 -9 -41 -11 -66 -3
-76 -5 -105 -25 -18 -11 -28 -13 -33 -6 -5 8 -9 8 -14 -1 -4 -6 -22 -13 -41
-14 -19 -2 -33 -8 -32 -14 1 -5 -7 -8 -17 -5 -13 3 -20 0 -20 -8 0 -11 -2 -11
-10 1 -8 12 -10 12 -10 1 0 -8 -7 -11 -20 -8 -11 3 -18 1 -14 -4 3 -5 -1 -10
-8 -11 -7 0 -17 -2 -23 -2 -5 -1 -16 -5 -22 -9 -7 -5 -13 -5 -13 0 0 4 -5 1
-10 -7 -9 -13 -10 -13 -11 0 0 10 -3 9 -8 -4 -4 -11 -18 -21 -32 -23 -13 -3
-31 -6 -39 -8 -8 -2 -21 -4 -28 -4 -7 -1 -10 -5 -7 -11 3 -5 1 -11 -4 -11 -6
-1 -16 -2 -21 -3 -6 0 -15 -7 -19 -15 -6 -9 -11 -10 -15 -2 -10 15 -29 2 -22
-15 3 -8 2 -13 -2 -13 -25 4 -52 -3 -47 -11 3 -6 -1 -7 -9 -4 -11 4 -16 0 -16
-12 0 -11 -3 -15 -8 -9 -5 7 -19 5 -42 -8 -19 -10 -26 -16 -15 -13 20 6 20 6
1 -9 -16 -12 -22 -12 -28 -2 -6 9 -8 8 -8 -4 0 -9 -7 -20 -16 -23 -10 -4 -13
-2 -8 7 4 6 -2 4 -13 -6 -11 -9 -22 -14 -26 -11 -4 4 -4 -3 -2 -16 3 -17 2
-20 -9 -10 -10 8 -15 8 -18 0 -2 -6 -12 -12 -22 -14 -10 -1 -25 -10 -32 -20
-7 -10 -21 -19 -31 -20 -11 -2 -17 -10 -15 -21 2 -10 -1 -14 -7 -10 -6 3 -14
-1 -17 -10 -6 -13 -8 -14 -15 -3 -7 10 -9 8 -9 -6 0 -12 -5 -16 -15 -13 -14 6
-29 -8 -30 -28 -1 -5 -7 -9 -14 -7 -8 2 -11 -3 -8 -11 3 -7 -4 -19 -14 -26
-11 -6 -17 -16 -14 -20 3 -5 -6 -8 -20 -6 -22 2 -23 0 -13 -13 10 -13 10 -14
1 -8 -8 4 -13 2 -13 -4 0 -6 -4 -9 -9 -5 -5 3 -13 0 -17 -6 -4 -7 -3 -9 4 -5
6 3 14 1 18 -5 4 -7 3 -10 -2 -7 -16 10 -56 -11 -51 -26 3 -8 -1 -20 -9 -26
-9 -8 -14 -9 -14 -2 0 6 6 13 13 15 9 4 9 6 -1 6 -12 1 -33 -38 -26 -50 2 -3
-3 -6 -11 -6 -12 0 -12 3 -2 16 11 14 10 14 -6 2 -9 -7 -16 -21 -15 -30 2 -9
-4 -16 -16 -16 -11 0 -21 -7 -23 -15 -4 -13 -3 -13 7 0 10 13 11 13 7 0 -2 -8
-12 -14 -21 -12 -9 2 -20 -6 -24 -18 -4 -12 -12 -21 -17 -21 -6 1 -10 -5 -10
-11 -1 -7 -6 -12 -12 -11 -6 1 -14 -4 -17 -13 -4 -10 -1 -13 7 -9 6 4 4 0 -5
-8 -10 -8 -15 -17 -11 -20 3 -4 -1 -7 -10 -7 -9 0 -19 -5 -23 -12 -5 -8 -2 -9
10 -5 10 4 15 3 11 -3 -3 -6 -14 -10 -24 -10 -10 0 -25 -8 -32 -17 -10 -11
-10 -14 -1 -9 6 4 12 2 12 -4 0 -6 -10 -15 -23 -20 -13 -5 -16 -9 -7 -10 9 0
6 -6 -10 -15 -15 -9 -19 -15 -10 -15 12 0 11 -4 -4 -15 -11 -8 -15 -19 -10
-27 6 -10 4 -10 -9 1 -15 12 -17 12 -11 -3 4 -10 0 -18 -10 -22 -12 -5 -14
-10 -6 -19 8 -10 8 -15 -1 -21 -8 -5 -9 -3 -4 6 6 9 4 11 -4 6 -7 -5 -10 -14
-7 -22 5 -13 -6 -19 -29 -14 -5 1 -7 -2 -3 -6 4 -4 2 -14 -5 -22 -10 -13 -9
-15 3 -8 8 4 6 0 -5 -9 -11 -9 -19 -23 -17 -31 2 -8 -2 -14 -9 -14 -6 0 -9 -6
-6 -13 6 -15 -18 -39 -29 -29 -5 4 -2 -1 5 -10 11 -15 11 -19 -3 -24 -10 -4
-15 -13 -12 -21 3 -8 2 -12 -3 -9 -9 6 -24 -30 -21 -53 1 -7 -3 -10 -9 -6 -11
6 -14 -2 -14 -37 0 -10 -3 -15 -7 -13 -4 3 -10 -2 -13 -9 -3 -8 -1 -17 6 -20
9 -3 9 -5 0 -5 -7 -1 -13 -8 -13 -17 0 -8 -4 -13 -8 -10 -4 2 -9 -10 -10 -27
-2 -18 -7 -34 -12 -35 -6 -2 -8 -7 -5 -12 3 -5 -2 -16 -11 -24 -10 -10 -11
-16 -3 -16 8 0 9 -3 0 -13 -6 -8 -8 -17 -4 -20 3 -4 1 -7 -6 -7 -7 0 -9 -4 -6
-10 3 -5 0 -10 -7 -10 -10 0 -10 -2 1 -9 11 -7 10 -11 -5 -20 -11 -6 -15 -11
-10 -11 5 0 2 -8 -5 -17 -10 -11 -10 -14 -1 -9 17 10 15 1 -4 -18 -8 -9 -11
-16 -6 -16 6 0 7 -14 2 -34 -4 -19 -5 -37 -2 -40 3 -4 -1 -6 -9 -6 -11 0 -11
-2 1 -10 10 -6 11 -10 3 -10 -7 0 -13 -9 -13 -20 0 -11 -6 -20 -12 -20 -10 0
-9 -3 1 -9 8 -5 9 -10 3 -12 -12 -5 -19 -90 -8 -107 5 -8 2 -10 -8 -6 -14 5
-16 -28 -16 -310 0 -227 3 -316 11 -316 8 0 8 -5 -1 -15 -9 -10 -9 -15 -1 -15
7 0 11 -20 11 -51 0 -37 3 -48 12 -43 8 5 7 0 -2 -11 -9 -11 -10 -16 -3 -11
10 5 13 -3 13 -28 0 -20 5 -36 11 -36 8 0 8 -5 -1 -15 -7 -8 -8 -15 -3 -15 6
0 10 -10 9 -23 -1 -12 3 -25 8 -29 5 -3 10 -15 11 -25 3 -28 9 -48 17 -54 5
-3 9 -17 10 -32 1 -15 6 -27 10 -27 4 0 8 -11 8 -25 0 -14 5 -25 11 -25 8 0 8
-5 -1 -15 -9 -10 -9 -15 -1 -15 6 0 11 -7 11 -15 0 -8 6 -15 13 -15 8 0 7 -4
-3 -10 -10 -6 -11 -10 -2 -10 6 0 12 -7 12 -15 0 -8 5 -15 11 -15 6 0 9 -7 6
-15 -4 -8 -2 -17 4 -21 6 -3 8 -11 6 -18 -5 -13 18 -38 27 -29 3 4 6 2 6 -3 0
-6 -5 -15 -11 -21 -8 -8 -5 -13 11 -18 18 -6 20 -9 9 -16 -10 -6 -11 -9 -1 -9
6 0 12 -6 12 -14 0 -8 4 -16 9 -18 5 -1 11 -12 13 -23 3 -22 20 -45 29 -39 3
2 6 -3 6 -11 0 -8 -4 -12 -9 -9 -4 3 -8 0 -8 -5 0 -6 7 -11 16 -11 10 0 14 -5
10 -16 -3 -8 -2 -12 4 -9 9 6 12 -1 9 -22 0 -4 9 -10 20 -15 13 -4 19 -13 15
-23 -4 -8 -1 -15 6 -15 7 0 10 -7 6 -15 -3 -9 3 -20 14 -27 11 -7 20 -18 20
-25 0 -7 5 -13 11 -13 5 0 7 -5 4 -10 -4 -6 -1 -9 7 -8 7 2 14 -7 16 -20 2
-12 8 -20 13 -17 5 4 9 -3 9 -15 0 -12 5 -18 10 -15 6 3 10 1 10 -5 0 -6 4 -9
9 -6 5 3 8 -2 7 -12 0 -10 5 -16 13 -14 12 3 12 1 1 -13 -7 -9 -9 -15 -4 -14
23 4 34 -3 34 -20 0 -15 5 -19 21 -16 17 3 19 2 9 -10 -16 -20 -5 -34 23 -28
18 4 19 3 7 -6 -12 -9 -11 -11 8 -11 20 0 27 -10 23 -33 -1 -5 4 -5 10 -1 9 5
10 2 5 -11 -5 -14 -4 -16 7 -7 14 12 27 7 27 -10 0 -5 -5 -6 -12 -2 -7 4 -8 3
-4 -4 4 -6 14 -8 24 -5 15 6 15 4 4 -9 -11 -14 -10 -16 9 -11 19 5 21 3 17
-15 -7 -26 8 -38 27 -22 12 10 13 8 10 -9 -3 -14 0 -19 7 -15 8 5 9 1 4 -11
-5 -15 -4 -16 8 -6 12 10 16 8 21 -8 3 -12 11 -21 16 -21 6 0 7 -6 3 -12 -6
-10 -4 -10 8 0 13 10 17 10 21 0 3 -8 6 -6 6 5 1 10 6 15 11 12 6 -3 10 -1 10
5 0 6 4 9 9 6 4 -3 8 4 7 17 -1 14 4 21 13 19 8 -2 11 3 8 13 -4 8 -2 15 4 15
6 0 8 4 5 9 -3 5 2 12 11 15 15 6 15 8 3 16 -12 8 -12 10 3 16 9 3 14 10 11
15 -3 5 0 9 6 9 6 0 8 5 5 10 -3 6 -1 10 5 10 6 0 8 5 4 12 -5 8 -2 9 11 4 15
-5 16 -4 6 8 -9 11 -9 16 0 22 8 5 9 3 4 -6 -5 -9 -4 -11 3 -6 7 4 12 16 12
27 0 13 4 18 12 13 7 -5 8 -3 4 5 -5 7 0 18 10 26 13 10 15 14 5 15 -10 0 -11
4 -3 13 12 14 -10 52 -23 39 -5 -4 -5 1 -2 10 6 17 -3 23 -26 19 -5 -1 -6 3
-3 8 4 5 -3 12 -14 16 -11 3 -20 15 -20 25 0 10 -9 22 -21 25 -26 9 -64 45
-47 45 7 0 -2 9 -20 20 -17 11 -32 27 -32 35 0 9 -4 13 -10 10 -5 -3 -10 3
-10 15 0 12 -4 18 -10 15 -6 -3 -10 1 -10 10 0 21 -25 46 -36 37 -5 -4 -2 1 6
11 11 16 11 18 -1 15 -9 -2 -13 4 -11 17 2 11 1 17 -3 13 -10 -10 -35 17 -35
36 0 9 -4 16 -10 16 -5 0 -10 7 -10 15 0 8 -6 15 -12 15 -10 0 -10 2 0 9 10 6
8 10 -9 14 -13 4 -20 9 -16 13 10 10 -12 44 -30 44 -12 0 -13 3 -4 14 10 12 8
17 -9 26 -17 9 -19 14 -9 26 11 13 4 19 -22 16 -3 -1 -6 13 -6 29 0 17 -5 34
-12 39 -11 6 -11 9 0 13 10 4 10 6 2 6 -7 1 -13 8 -13 16 0 8 -6 15 -12 15 -9
0 -8 4 2 10 13 8 12 10 -3 10 -11 0 -15 5 -11 11 3 6 0 15 -7 20 -12 7 -11 9
1 9 10 0 7 7 -10 20 -14 11 -19 20 -12 20 12 0 12 0 -19 61 -8 16 -8 19 1 14
7 -5 7 3 -2 21 -8 16 -13 37 -11 46 3 10 0 18 -5 18 -6 0 -9 14 -8 30 2 21 -2
30 -13 30 -13 0 -13 2 -2 9 11 7 11 9 0 13 -9 3 -13 17 -11 41 2 21 -1 37 -7
37 -7 0 -10 101 -10 310 0 171 3 310 7 310 4 0 9 17 10 37 2 20 8 44 15 52 10
12 9 13 -3 6 -13 -8 -13 -7 -1 8 7 9 10 17 6 17 -4 0 -2 7 5 15 7 8 9 15 5 15
-4 0 -1 8 6 17 8 9 9 14 2 10 -14 -9 7 54 22 65 6 5 6 8 -2 8 -9 0 -8 7 2 27
8 15 12 30 9 35 -3 4 0 8 6 8 6 0 9 4 5 9 -3 5 2 17 11 25 10 10 11 16 3 16
-8 0 -9 3 0 13 6 8 8 17 4 20 -3 4 -1 7 6 7 7 0 10 4 6 9 -3 5 -1 12 4 16 6 3
7 13 4 22 -4 10 -2 14 5 9 6 -3 13 -2 17 4 3 5 1 10 -6 10 -7 0 -2 9 10 19 16
14 18 21 9 24 -11 4 -10 6 0 6 7 1 10 6 7 11 -3 6 -1 10 5 10 6 0 9 4 5 9 -3
5 -1 12 5 16 6 4 8 10 5 15 -3 4 3 11 12 14 15 6 15 8 3 17 -12 7 -11 10 8 15
19 5 20 9 10 22 -11 13 -10 15 4 9 10 -3 20 -2 23 3 4 6 1 10 -6 10 -7 0 -3 9
9 20 24 23 29 35 10 24 -7 -4 -4 2 7 13 11 11 23 19 27 16 4 -2 5 2 2 10 -3 8
0 18 5 22 6 3 8 11 5 17 -4 7 -2 8 4 4 7 -4 12 -2 12 4 0 6 5 8 13 4 9 -6 9
-5 0 7 -10 12 -9 18 7 32 11 9 20 13 20 9 1 -4 8 6 16 21 8 15 18 25 23 23 4
-3 8 2 8 11 0 12 -6 9 -23 -10 -13 -15 -27 -27 -31 -27 -4 1 15 22 42 48 28
26 46 44 41 40 -20 -16 -26 -8 -8 10 9 11 25 18 35 16 14 -2 15 0 6 18 -8 15
-8 19 0 14 6 -4 11 -1 11 6 0 9 3 9 10 -2 9 -13 14 -7 11 13 0 4 3 7 9 7 6 0
9 6 8 13 -2 6 3 11 10 10 6 -2 12 2 12 8 0 5 4 8 9 4 5 -3 12 -1 16 5 3 5 1
10 -5 10 -7 0 -5 6 4 15 19 20 27 19 19 -2 -3 -10 -3 -15 1 -11 7 6 13 27 15
53 1 6 6 3 11 -5 7 -11 10 -11 10 -2 0 7 5 10 11 6 7 -4 7 1 -1 16 -8 15 -8
20 -1 16 6 -4 11 -1 11 6 0 9 3 9 10 -2 9 -13 14 -7 11 13 0 4 4 7 9 7 5 0 9
5 7 12 -1 7 5 12 13 13 8 0 15 5 15 12 0 6 4 15 9 20 5 5 6 3 2 -4 -4 -7 -3
-13 3 -13 5 0 13 9 16 20 4 11 11 18 16 15 13 -9 49 14 49 30 0 8 6 14 13 12
6 -1 11 3 10 10 -1 6 4 14 13 17 8 3 12 1 9 -4 -3 -5 1 -7 9 -4 9 3 15 9 14
12 -2 20 3 25 12 12 8 -13 10 -12 10 4 0 13 5 16 16 12 12 -4 15 -2 10 9 -3
10 3 17 19 21 14 3 25 10 25 15 0 5 7 6 15 3 10 -4 15 0 16 12 0 11 3 14 5 8
4 -9 13 -8 34 3 17 8 30 17 30 19 0 3 -4 2 -10 -1 -16 -10 -11 1 7 16 11 10
14 10 9 2 -12 -21 8 -14 29 9 12 14 20 18 23 10 3 -9 8 -8 19 3 8 8 19 13 24
10 5 -4 9 -1 9 4 0 6 7 11 15 11 8 0 15 4 15 9 0 5 10 7 22 3 13 -3 19 -1 15
5 -4 6 0 13 8 17 8 3 15 0 15 -7 0 -7 5 -4 10 5 6 10 19 15 30 13 13 -3 18 0
14 7 -5 7 -1 9 9 5 10 -3 17 -2 17 4 0 6 5 7 10 4 6 -3 10 0 10 7 0 9 3 9 10
-2 7 -12 10 -12 10 -1 0 7 6 11 15 7 8 -3 15 -1 15 3 0 5 7 12 16 15 10 4 13
2 8 -7 -5 -9 -4 -9 7 1 7 6 26 12 42 12 15 0 26 4 22 9 -3 6 3 8 14 6 10 -2
30 3 45 10 19 10 26 11 26 2 0 -8 3 -8 8 -2 4 6 18 12 32 14 14 1 28 8 32 15
6 8 8 8 8 -1 0 -7 7 -10 15 -7 8 4 12 11 8 17 -3 5 -2 7 4 4 6 -4 141 -7 302
-7 160 -1 291 -4 291 -8 0 -4 14 -9 32 -10 18 -2 35 -6 38 -10 10 -14 132 -15
141 0 6 9 9 9 9 1 0 -19 51 33 53 54 0 11 7 20 14 20 10 0 10 -4 0 -16 -11
-14 -10 -14 6 -2 9 7 16 21 15 30 -2 9 4 16 16 16 11 0 21 7 23 15 4 13 3 13
-7 0 -10 -13 -11 -13 -7 0 2 8 12 14 21 12 10 -2 20 6 25 20 4 13 12 22 17 21
5 -2 9 3 9 10 1 6 7 11 14 9 9 -2 11 3 7 14 -4 11 -2 15 8 11 8 -3 20 2 28 11
12 15 11 16 -5 3 -15 -12 -17 -12 -12 2 4 8 18 18 33 22 18 4 22 9 13 14 -9 6
-10 11 -2 15 19 12 12 26 -14 26 -14 0 -25 6 -25 13 0 8 -4 7 -10 -3 -8 -13
-14 -8 -12 11 1 3 -10 4 -23 1 -15 -2 -25 0 -25 7 0 6 -11 11 -25 11 -14 0
-25 6 -25 13 0 8 -3 7 -10 -3 -8 -12 -10 -12 -16 3 -5 14 -9 15 -20 6 -11 -9
-15 -7 -20 5 -5 13 -9 14 -20 5 -13 -11 -18 -6 -15 14 1 4 -8 3 -19 -3 -14 -8
-20 -8 -20 0 0 6 -4 8 -10 5 -5 -3 -16 -3 -22 2 -16 9 -19 10 -91 11 -32 1
-56 6 -53 10 3 5 -1 9 -9 9 -8 0 -11 -5 -8 -11 4 -6 0 -6 -8 1 -11 9 -87 13
-261 15 -134 2 -253 1 -264 -1z m796 -390 c0 -5 -7 -12 -16 -15 -14 -5 -15 -4
-4 9 14 17 20 19 20 6z m-1920 -31 c0 -5 -5 -10 -11 -10 -5 0 -7 5 -4 10 3 6
8 10 11 10 2 0 4 -4 4 -10z m-140 -100 c0 -5 -5 -10 -11 -10 -5 0 -7 5 -4 10
3 6 8 10 11 10 2 0 4 -4 4 -10z m-505 -3198 c-3 -3 -11 0 -18 7 -9 10 -8 11 6
5 10 -3 15 -9 12 -12z m195 -246 c0 -3 -4 -8 -10 -11 -5 -3 -10 -1 -10 4 0 6
5 11 10 11 6 0 10 -2 10 -4z m150 -156 c0 -5 -5 -10 -11 -10 -5 0 -7 5 -4 10
3 6 8 10 11 10 2 0 4 -4 4 -10z"/>
<path d="M3798 4750 c-7 -11 -19 -20 -27 -20 -11 0 -11 -3 -1 -15 10 -12 8
-14 -9 -10 -16 3 -21 -1 -19 -13 2 -11 -3 -16 -14 -14 -9 1 -20 -3 -24 -9 -5
-8 -3 -9 7 -4 11 7 12 6 2 -7 -7 -8 -10 -18 -6 -21 3 -4 1 -7 -4 -7 -6 0 -14
6 -16 13 -3 7 -6 4 -6 -6 -1 -10 -6 -15 -12 -12 -6 4 -9 0 -7 -11 2 -13 -3
-19 -16 -19 -11 0 -21 -7 -23 -15 -4 -13 -3 -13 7 0 10 13 11 13 7 0 -2 -8
-10 -15 -18 -15 -8 0 -14 -6 -14 -12 0 -7 -4 -14 -10 -15 -5 -1 -18 -12 -28
-25 -10 -13 -25 -23 -34 -23 -12 0 -13 -3 -3 -15 10 -12 8 -14 -9 -10 -16 3
-21 -1 -19 -13 2 -11 -4 -17 -16 -17 -11 0 -21 -7 -23 -15 -4 -13 -3 -13 7 0
10 13 11 13 7 0 -2 -8 -11 -14 -20 -12 -11 2 -15 -2 -11 -12 3 -8 0 -17 -7
-22 -7 -4 -10 -3 -5 4 3 6 2 14 -4 17 -6 4 -10 3 -9 -2 3 -20 -2 -34 -11 -28
-6 4 -9 3 -8 -2 4 -13 -26 -48 -41 -48 -8 0 -16 -7 -18 -15 -4 -13 -3 -13 7 0
10 13 11 13 7 0 -2 -8 -11 -14 -20 -12 -12 2 -15 -2 -11 -13 5 -11 2 -14 -12
-8 -12 4 -15 3 -10 -5 4 -7 1 -12 -10 -12 -13 0 -14 -3 -4 -15 10 -12 8 -14
-9 -10 -16 3 -21 -1 -19 -13 2 -11 -4 -17 -16 -17 -11 0 -21 -7 -23 -15 -4
-13 -3 -13 7 0 10 13 11 13 7 0 -2 -8 -11 -14 -20 -12 -12 2 -15 -2 -10 -14 5
-13 2 -16 -9 -11 -10 3 -19 0 -22 -9 -4 -10 -2 -13 7 -8 7 4 8 3 4 -2 -5 -5
-16 -9 -24 -9 -9 0 -18 -7 -20 -15 -4 -13 -3 -13 7 0 10 13 11 13 7 0 -2 -8
-11 -14 -20 -12 -11 2 -15 -2 -11 -12 3 -8 0 -17 -7 -22 -7 -4 -10 -3 -5 4 3
6 2 14 -4 17 -6 4 -10 3 -9 -2 3 -20 -2 -34 -11 -28 -6 4 -9 3 -8 -2 4 -13
-26 -48 -41 -48 -8 0 -16 -7 -18 -15 -4 -13 -3 -13 7 0 10 13 11 13 7 0 -2 -8
-11 -14 -20 -12 -12 2 -15 -2 -11 -13 5 -11 2 -14 -12 -8 -12 4 -15 3 -10 -5
4 -7 1 -12 -10 -12 -13 0 -14 -3 -4 -15 10 -12 8 -14 -9 -10 -16 3 -21 -1 -19
-13 2 -11 -4 -17 -16 -17 -11 0 -21 -7 -23 -15 -4 -13 -3 -13 7 0 10 13 11 13
7 0 -2 -8 -11 -15 -20 -15 -20 0 -55 -37 -49 -53 2 -8 -2 -10 -14 -5 -12 4
-15 3 -10 -5 4 -7 1 -12 -10 -12 -13 0 -14 -3 -4 -15 10 -12 8 -14 -9 -10 -16
3 -21 -1 -19 -13 2 -11 -4 -17 -16 -17 -11 0 -21 -7 -23 -15 -4 -13 -3 -13 7
0 10 13 11 13 7 0 -2 -8 -11 -14 -20 -12 -12 2 -15 -2 -10 -14 5 -13 2 -16 -9
-11 -10 3 -19 0 -22 -9 -4 -10 -2 -13 7 -8 7 4 8 3 4 -2 -5 -5 -16 -9 -24 -9
-9 0 -18 -7 -20 -15 -4 -13 -3 -13 7 0 10 13 11 13 7 0 -2 -8 -11 -14 -20 -12
-11 2 -15 -2 -11 -12 3 -8 0 -17 -7 -22 -7 -4 -10 -3 -5 4 3 6 2 14 -4 17 -6
4 -10 3 -9 -2 3 -20 -2 -34 -11 -28 -6 4 -10 3 -9 -2 3 -19 -2 -33 -12 -33 -5
0 -7 5 -3 12 4 7 3 8 -5 4 -6 -4 -10 -15 -9 -23 2 -9 -4 -18 -12 -20 -13 -4
-13 -3 0 7 13 10 13 11 0 7 -8 -2 -15 -12 -15 -23 0 -12 -6 -18 -17 -16 -12 2
-16 -3 -13 -19 4 -17 2 -19 -10 -9 -12 10 -15 9 -15 -4 0 -11 -5 -14 -12 -10
-8 5 -9 2 -5 -10 6 -14 3 -17 -8 -12 -11 4 -15 1 -13 -11 2 -9 -4 -18 -12 -20
-13 -4 -13 -3 0 7 13 10 13 11 0 7 -8 -2 -15 -10 -15 -18 0 -15 -35 -45 -48
-41 -5 1 -6 -2 -2 -8 6 -9 -8 -14 -28 -11 -5 1 -6 -3 -2 -9 3 -6 11 -7 17 -4
7 5 8 2 4 -5 -5 -7 -14 -10 -22 -7 -10 4 -14 0 -12 -11 2 -9 -4 -18 -12 -20
-13 -4 -13 -3 0 7 13 10 13 11 0 7 -8 -2 -15 -12 -15 -23 0 -12 -6 -18 -17
-16 -13 2 -16 -3 -13 -19 3 -17 2 -20 -7 -11 -9 9 -14 6 -23 -11 -6 -12 -17
-21 -24 -19 -7 1 -10 -2 -6 -8 6 -9 -8 -14 -28 -11 -5 1 -6 -3 -2 -9 3 -6 11
-7 17 -4 7 5 8 2 4 -5 -5 -7 -14 -10 -22 -7 -10 4 -14 0 -12 -11 2 -9 -4 -18
-12 -20 -13 -4 -13 -3 0 7 13 10 13 11 0 7 -8 -2 -15 -11 -15 -20 0 -8 -4 -19
-9 -24 -5 -4 -6 -3 -2 4 5 9 2 11 -8 7 -9 -3 -12 -12 -9 -22 5 -11 2 -14 -11
-9 -12 5 -16 2 -14 -10 2 -9 -4 -18 -12 -20 -13 -4 -13 -3 0 7 13 10 13 11 0
7 -8 -2 -15 -12 -15 -23 0 -12 -6 -18 -17 -16 -12 2 -16 -3 -13 -19 4 -17 2
-19 -10 -9 -12 10 -15 9 -15 -4 0 -11 -5 -14 -12 -10 -8 5 -9 2 -5 -10 6 -14
3 -17 -8 -12 -11 4 -15 1 -13 -11 2 -9 -4 -18 -12 -20 -13 -4 -13 -3 0 7 13
10 13 11 0 7 -8 -2 -15 -10 -15 -18 0 -15 -35 -45 -48 -41 -5 1 -6 -2 -2 -8 6
-9 -8 -14 -28 -11 -5 1 -6 -3 -2 -9 3 -6 11 -7 17 -4 7 5 8 2 4 -5 -5 -7 -14
-10 -22 -7 -10 4 -14 0 -12 -11 2 -9 -4 -18 -12 -20 -13 -4 -13 -3 0 7 13 10
13 11 0 7 -8 -2 -15 -11 -15 -20 0 -8 -4 -19 -9 -24 -5 -4 -6 -3 -2 4 5 9 2
11 -8 7 -9 -3 -12 -12 -9 -22 5 -11 2 -14 -11 -9 -12 5 -16 2 -14 -10 2 -9 -4
-18 -12 -20 -13 -4 -13 -3 0 7 13 10 13 11 0 7 -8 -2 -15 -12 -15 -23 0 -12
-6 -18 -17 -16 -12 2 -16 -3 -13 -19 4 -17 2 -19 -10 -9 -12 10 -15 9 -15 -4
0 -11 -5 -14 -12 -10 -8 5 -9 2 -5 -10 5 -12 3 -16 -5 -14 -16 6 -53 -29 -53
-49 0 -9 -7 -18 -15 -20 -13 -4 -13 -3 0 7 13 10 13 11 0 7 -8 -2 -15 -12 -15
-23 0 -12 -6 -18 -17 -16 -12 2 -16 -3 -13 -19 4 -17 2 -19 -10 -9 -12 10 -15
9 -15 -4 0 -11 -5 -14 -12 -10 -8 5 -9 2 -5 -10 6 -14 3 -17 -8 -12 -11 4 -15
1 -13 -11 2 -9 -4 -18 -12 -20 -13 -4 -13 -3 0 7 13 10 13 11 0 7 -8 -2 -15
-10 -15 -18 0 -15 -35 -45 -48 -41 -5 1 -6 -2 -2 -8 6 -9 -8 -14 -28 -11 -5 1
-6 -3 -2 -9 3 -6 11 -7 17 -4 7 5 8 2 4 -5 -5 -7 -14 -10 -22 -7 -10 4 -14 0
-12 -11 2 -9 -4 -18 -12 -20 -13 -4 -13 -3 0 7 13 10 13 11 0 7 -8 -2 -15 -11
-15 -20 0 -8 -4 -19 -9 -24 -5 -4 -6 -3 -2 4 5 9 2 11 -8 7 -9 -3 -12 -12 -9
-22 5 -11 2 -14 -11 -9 -12 5 -16 2 -14 -10 2 -9 -4 -18 -12 -20 -13 -4 -13
-3 0 7 13 10 13 11 0 7 -8 -2 -15 -12 -15 -23 0 -12 -6 -18 -18 -16 -11 2 -15
-2 -11 -12 3 -8 0 -17 -7 -22 -8 -4 -10 -3 -5 4 4 7 2 12 -3 12 -6 0 -11 -11
-11 -25 l0 -25 450 0 c422 0 450 -1 450 -17 0 -31 -12 -63 -20 -58 -5 3 -11 1
-15 -5 -3 -5 -1 -10 5 -10 6 0 8 -5 5 -10 -4 -6 -10 -8 -15 -5 -5 3 -11 1 -15
-5 -3 -5 -1 -10 6 -10 7 0 3 -9 -9 -20 -24 -23 -29 -35 -9 -25 6 4 4 0 -7 -9
-10 -8 -15 -20 -11 -25 3 -6 -4 -15 -16 -19 -15 -6 -19 -11 -10 -16 8 -5 5
-13 -11 -27 -13 -12 -17 -18 -11 -14 9 4 11 1 7 -10 -5 -13 -9 -13 -22 -3 -12
10 -14 10 -8 1 4 -7 4 -19 -1 -25 -8 -13 -9 -18 -12 -39 0 -5 -5 -8 -10 -4 -5
3 -12 1 -16 -5 -3 -5 -1 -10 5 -10 6 0 2 -13 -9 -29 -11 -15 -18 -31 -14 -35
3 -3 1 -6 -6 -6 -7 0 -10 -4 -7 -9 3 -5 -2 -15 -11 -22 -12 -10 -14 -10 -9 -1
4 6 2 12 -3 12 -14 0 -14 -13 1 -28 9 -9 8 -12 -4 -12 -9 0 -20 -5 -24 -12 -5
-7 -2 -9 7 -4 8 4 5 0 -5 -8 -11 -9 -16 -16 -10 -16 5 0 2 -5 -6 -10 -10 -6
-11 -10 -2 -10 6 0 12 -5 12 -11 0 -5 -4 -8 -9 -5 -8 5 -16 -5 -20 -29 -2 -5
-9 -14 -17 -18 -8 -4 -14 -13 -14 -18 0 -6 6 -7 13 -3 6 4 -3 -8 -21 -26 -19
-19 -31 -39 -27 -48 4 -10 0 -12 -10 -8 -9 3 -14 2 -10 -3 8 -15 -6 -42 -19
-34 -6 4 -5 -1 3 -10 12 -15 12 -17 -4 -11 -13 6 -16 4 -10 -5 4 -8 2 -17 -6
-22 -8 -4 -15 -13 -15 -19 -1 -5 -2 -15 -3 -21 0 -5 -6 -7 -13 -3 -8 5 -9 0
-6 -14 4 -12 2 -20 -3 -16 -8 4 -14 -24 -10 -48 0 -4 -5 -5 -13 -2 -17 6 -31
-12 -16 -21 6 -4 1 -14 -12 -26 -13 -12 -17 -18 -11 -14 9 4 11 1 7 -10 -5
-13 -9 -13 -22 -3 -13 11 -14 11 -8 0 4 -7 3 -18 -2 -25 -6 -7 -10 -14 -9 -17
2 -17 -37 -79 -47 -73 -6 3 -6 0 2 -8 15 -16 16 -29 1 -29 -5 0 -7 4 -4 10 3
5 1 10 -4 10 -10 0 -12 -7 -10 -26 0 -3 -8 -12 -18 -21 -10 -8 -11 -11 -4 -7
10 5 8 -3 -5 -22 -26 -36 -38 -65 -35 -83 1 -8 -2 -10 -10 -5 -9 5 -10 2 -6
-9 3 -9 -1 -21 -11 -29 -15 -12 -16 -11 -4 4 10 12 10 18 1 24 -7 4 -9 3 -5
-4 3 -6 2 -13 -3 -16 -4 -3 -11 -19 -15 -36 -3 -18 -10 -29 -16 -25 -5 3 -10
-1 -10 -10 0 -10 5 -13 12 -9 7 4 8 3 4 -5 -4 -6 -11 -9 -15 -7 -4 3 -13 -4
-20 -16 -7 -11 -8 -17 -2 -14 7 4 9 1 5 -8 -3 -8 -12 -17 -20 -20 -8 -3 -14
-12 -14 -21 0 -8 -6 -15 -12 -15 -9 0 -8 -4 2 -10 13 -8 13 -10 -2 -10 -9 0
-20 -5 -24 -12 -4 -6 -3 -8 3 -5 5 3 10 0 10 -7 0 -9 -7 -12 -16 -8 -9 3 -13
2 -9 -3 4 -4 2 -15 -5 -23 -10 -13 -9 -14 3 -7 8 4 4 -2 -8 -15 -19 -18 -21
-24 -10 -31 10 -7 9 -9 -6 -9 -12 0 -16 -5 -12 -16 3 -8 2 -12 -4 -9 -6 3 -10
-1 -10 -9 0 -8 -5 -18 -12 -22 -6 -4 -8 -3 -4 4 3 6 2 13 -3 16 -5 4 -8 -5 -6
-19 1 -14 -2 -25 -8 -25 -6 0 -7 -3 -4 -7 4 -3 -1 -12 -11 -20 -9 -8 -11 -11
-4 -8 11 6 11 3 1 -13 -7 -12 -18 -18 -24 -14 -6 4 -6 1 1 -9 8 -10 6 -18 -7
-31 -9 -9 -21 -13 -25 -10 -5 4 -3 0 3 -9 10 -12 9 -18 -7 -31 -10 -9 -22 -13
-26 -10 -5 4 -2 -1 5 -10 11 -15 11 -19 -4 -24 -10 -4 -15 -14 -12 -25 3 -10
0 -17 -6 -16 -6 1 -12 -2 -12 -8 -1 -5 -5 -18 -10 -28 -11 -27 2 -33 25 -12
20 18 21 18 14 0 -6 -16 -4 -15 15 4 12 12 23 31 24 41 1 10 4 17 9 14 4 -2
12 4 18 15 6 13 18 18 31 16 18 -4 19 -2 7 12 -9 12 -9 15 -1 9 7 -4 13 -2 13
3 0 6 5 10 12 8 7 -1 13 5 13 13 0 8 7 14 14 12 9 -2 11 3 7 14 -4 11 -2 15 8
11 8 -3 20 2 28 11 12 15 11 16 -5 3 -15 -12 -17 -12 -12 2 4 8 15 17 26 20
11 3 19 9 18 14 -3 20 2 24 17 13 8 -8 14 -9 13 -4 -4 24 2 42 17 48 15 6 15
4 3 -11 -13 -16 -12 -17 3 -5 9 8 14 20 11 28 -4 10 0 12 11 8 11 -4 16 -2 14
7 -2 7 3 13 10 14 6 0 12 5 13 10 0 6 9 13 21 18 12 4 18 13 14 22 -3 9 3 19
15 25 11 6 16 16 13 22 -4 6 -3 9 2 6 16 -10 56 11 51 26 -3 8 1 20 9 26 9 8
14 9 14 2 0 -6 -6 -13 -12 -15 -10 -4 -10 -6 0 -6 12 -1 33 38 26 50 -2 3 3 6
11 6 12 0 12 -3 2 -16 -11 -14 -10 -14 6 -2 9 7 16 21 15 30 -2 10 3 15 15 13
10 -2 16 2 15 10 -2 6 3 12 10 13 6 0 12 5 13 10 0 6 9 13 21 18 12 4 18 13
15 21 -3 8 1 20 9 26 9 8 14 9 14 2 0 -6 -6 -13 -12 -15 -10 -4 -10 -6 0 -6
12 -1 33 38 26 50 -2 3 3 6 11 6 12 0 12 -3 2 -16 -11 -14 -10 -14 6 -2 10 8
16 20 13 27 -7 18 5 26 20 13 10 -8 12 -6 9 10 -2 13 0 19 6 15 6 -3 13 3 16
14 3 11 12 23 20 27 14 5 14 3 2 -12 -13 -16 -12 -17 3 -5 9 8 14 20 11 28 -4
10 0 12 11 8 11 -4 16 -2 14 7 -2 7 3 13 10 14 6 0 12 4 11 10 0 5 9 13 21 17
14 5 20 14 16 23 -3 9 3 19 15 25 11 6 16 16 13 22 -4 6 -3 9 2 6 16 -10 56
11 51 26 -3 8 1 20 9 26 9 8 14 9 14 2 0 -6 -6 -13 -12 -15 -10 -4 -10 -6 0
-6 12 -1 33 38 26 50 -2 3 3 6 11 6 12 0 12 -3 2 -16 -11 -14 -10 -14 6 -2 10
8 16 20 13 27 -7 18 5 26 20 13 10 -8 12 -6 9 10 -2 13 0 19 6 15 6 -3 13 3
16 14 3 11 12 23 20 27 14 5 14 3 2 -12 -13 -16 -12 -17 3 -5 9 8 14 20 11 28
-4 10 0 12 11 8 11 -4 16 -2 14 7 -2 7 3 13 10 14 6 0 12 4 11 10 0 5 9 13 21
17 13 5 20 14 17 22 -3 8 1 20 9 26 9 8 14 9 14 2 0 -6 -6 -13 -12 -15 -10 -4
-10 -6 0 -6 8 -1 19 12 25 29 6 16 18 32 26 35 12 5 12 3 0 -12 -13 -16 -12
-17 3 -5 9 8 14 20 11 28 -4 10 0 12 11 8 11 -4 16 -2 14 7 -2 7 3 13 10 14 6
0 12 4 11 10 0 5 9 13 21 17 14 5 20 14 16 23 -3 9 3 19 15 25 11 6 16 16 13
22 -4 6 -3 9 2 6 16 -10 56 11 51 26 -3 8 1 20 9 26 9 8 14 9 14 2 0 -6 -6
-13 -12 -15 -10 -4 -10 -6 0 -6 12 -1 33 38 26 50 -2 3 3 6 11 6 12 0 12 -3 2
-16 -11 -14 -10 -14 6 -2 9 7 16 21 15 30 -2 9 4 16 16 16 11 0 21 7 23 15 4
13 3 13 -7 0 -10 -13 -11 -13 -7 0 2 8 12 14 21 12 9 -2 20 6 24 17 4 11 12
20 17 20 6 1 10 7 10 14 1 6 7 11 14 9 9 -2 11 3 7 14 -4 11 -2 15 8 11 8 -3
20 2 28 11 12 15 11 16 -5 3 -15 -12 -17 -12 -12 2 4 8 16 17 27 20 11 3 17
10 14 16 -4 6 2 8 15 6 16 -3 18 -1 10 9 -13 15 -5 27 13 20 7 -3 19 3 27 13
12 16 12 17 -2 6 -13 -10 -16 -10 -16 2 0 8 3 13 6 11 12 -7 51 14 50 26 0 10
-2 10 -6 1 -2 -7 -9 -13 -15 -13 -7 0 -6 5 2 14 6 8 18 12 26 9 8 -3 17 4 22
17 4 12 12 21 17 21 6 -1 10 5 10 12 1 6 7 11 13 9 8 -1 12 5 10 15 -2 12 3
17 13 15 9 -1 23 6 30 15 12 16 12 17 -2 6 -13 -10 -16 -10 -16 2 0 8 3 13 6
11 12 -7 51 14 50 26 0 10 -2 10 -6 1 -2 -7 -9 -13 -15 -13 -7 0 -6 5 2 14 6
8 18 12 26 9 15 -5 36 35 26 51 -3 5 0 6 6 2 6 -3 16 2 22 13 6 12 16 18 25
15 9 -4 18 2 23 16 4 12 12 21 17 21 6 -1 10 5 10 12 1 6 7 11 14 9 9 -2 11 3
7 14 -4 11 -2 15 8 11 8 -3 20 2 28 11 12 15 11 16 -5 3 -15 -12 -17 -12 -11
3 6 15 24 21 48 17 5 -1 3 6 -5 15 -9 12 -9 15 -1 10 11 -7 17 5 13 27 -1 5 2
6 6 4 16 -9 55 13 50 27 -3 8 1 20 9 26 9 8 14 9 14 2 0 -6 -6 -13 -12 -15
-10 -4 -10 -6 0 -6 12 -1 33 38 26 50 -2 3 3 6 11 6 12 0 12 -3 2 -16 -11 -14
-10 -14 6 -2 10 8 16 20 13 27 -7 18 5 26 20 13 10 -8 12 -6 9 10 -2 13 0 19
6 15 6 -3 13 3 16 14 3 11 12 23 20 27 14 5 14 3 2 -12 -13 -16 -12 -17 3 -5
9 8 14 20 11 28 -4 10 0 12 11 8 11 -4 16 -2 14 7 -2 7 3 13 10 14 6 0 12 4
11 10 0 5 9 13 21 17 13 5 20 14 17 22 -3 8 1 20 9 26 9 8 14 9 14 2 0 -6 -6
-13 -12 -15 -10 -4 -10 -6 0 -6 12 -1 33 38 26 50 -2 3 3 6 11 6 12 0 12 -3 2
-16 -11 -14 -10 -14 6 -2 9 7 16 21 15 30 -2 10 3 15 13 13 19 -3 31 19 20 36
-5 9 -130 12 -454 12 -246 1 -447 4 -447 8 0 5 6 14 13 21 9 11 9 12 0 7 -9
-5 -11 -2 -7 8 3 8 13 17 22 21 14 5 14 7 2 15 -10 7 -11 10 -2 10 6 0 12 7
12 16 0 8 4 12 10 9 5 -3 7 0 4 8 -3 8 2 17 10 20 9 4 12 13 9 28 -4 14 -2 20
4 16 12 -8 47 39 38 52 -2 5 2 11 10 15 9 3 12 12 8 22 -4 10 -2 15 3 11 6 -3
16 -2 24 4 12 7 11 9 -5 9 -17 0 -17 2 -5 10 8 5 11 10 5 10 -5 0 1 6 15 13
15 8 24 20 22 31 -2 12 1 16 9 10 9 -5 10 -2 6 9 -4 10 -1 17 5 17 6 0 8 3 5
7 -4 3 1 12 11 20 9 8 11 12 5 8 -9 -4 -11 -1 -7 9 3 9 14 16 23 16 13 0 13 2
2 9 -9 6 -10 11 -2 15 6 4 8 12 5 18 -4 7 -2 8 4 4 7 -4 12 -2 12 4 0 6 5 8
13 4 9 -6 9 -5 0 7 -10 12 -9 18 7 31 10 9 22 13 26 10 5 -4 2 1 -5 11 -13 16
-12 19 8 24 16 4 19 9 11 18 -8 9 -6 14 5 19 8 3 15 9 14 13 -3 20 2 34 11 28
9 -5 15 15 11 37 0 5 2 7 7 5 4 -1 8 2 9 6 1 5 10 15 20 24 10 8 12 12 6 8
-20 -10 -15 2 9 25 15 14 18 20 7 20 -8 0 -10 3 -4 8 6 4 16 19 24 34 8 15 19
24 25 21 6 -4 5 1 -3 10 -12 15 -12 17 4 11 12 -5 16 -4 11 4 -4 6 2 20 13 31
12 12 18 27 15 36 -4 9 -3 15 2 14 21 -3 28 2 14 11 -12 7 -10 11 10 19 14 5
20 10 13 10 -7 1 -10 8 -7 16 4 8 11 12 17 8 6 -4 8 1 5 14 -3 11 1 28 10 39
14 19 15 19 8 -1 -5 -16 -3 -15 13 5 13 16 16 26 9 29 -6 2 0 12 13 23 13 11
19 17 12 13 -7 -3 -3 12 9 34 12 23 26 37 32 34 6 -4 5 0 -2 9 -10 13 -10 18
-1 24 8 4 9 3 5 -4 -4 -7 -3 -12 1 -12 5 0 17 20 27 45 12 27 23 42 30 38 6
-4 4 2 -4 12 -8 10 -10 16 -4 12 12 -7 28 26 25 50 -2 15 33 35 45 25 5 -4 2
1 -5 11 -12 15 -11 17 3 17 10 0 14 5 11 10 -3 6 0 10 7 10 10 0 10 2 -1 9
-11 7 -9 11 9 21 18 10 20 14 9 21 -10 6 -11 9 -1 9 6 0 12 7 12 16 0 11 5 14
17 10 10 -4 14 -4 10 0 -4 4 -1 14 6 22 9 13 9 14 0 8 -9 -5 -11 -2 -7 8 3 9
9 15 12 14 20 -2 25 3 12 12 -10 6 -11 10 -2 10 6 0 12 7 12 16 0 9 5 12 13 8
8 -5 7 -2 -2 9 -12 16 -12 17 5 11 10 -4 16 -4 12 1 -4 4 -2 15 5 23 10 13 9
14 -3 8 -8 -4 -4 2 10 14 14 12 20 19 13 16 -8 -5 -8 0 0 19 7 14 17 23 23 21
6 -2 11 5 10 17 -1 14 4 21 13 19 8 -2 11 3 8 13 -4 8 -1 15 5 15 6 0 8 3 5 7
-4 3 1 12 11 20 11 10 12 12 2 8 -13 -6 -13 -5 0 7 8 7 15 20 15 28 0 8 6 16
13 16 25 3 27 5 12 14 -12 8 -12 10 3 16 9 3 14 10 11 15 -3 5 -1 9 5 9 6 0 8
7 5 15 -5 11 -2 13 10 9 9 -3 16 -1 16 5 0 6 -5 11 -12 11 -6 0 -8 3 -5 7 4 3
1 13 -5 22 -10 13 -10 14 2 4 19 -18 33 -16 26 3 -3 8 -2 12 4 9 6 -3 10 -1
10 4 0 19 -39 12 -52 -9z m-922 -938 c-18 -16 -18 -16 -6 6 6 13 14 21 18 18
3 -4 -2 -14 -12 -24z m24 -766 c0 -3 -4 -8 -10 -11 -5 -3 -10 -1 -10 4 0 6 5
11 10 11 6 0 10 -2 10 -4z m-1250 -461 c-7 -8 -18 -15 -24 -15 -6 0 -2 7 8 15
25 19 32 19 16 0z"/>
<path d="M824 4228 l-19 -23 23 19 c21 18 27 26 19 26 -2 0 -12 -10 -23 -22z"/>
<path d="M3945 4207 c-11 -11 -15 -17 -8 -14 8 5 8 1 0 -17 -7 -13 -16 -22
-21 -19 -5 4 -7 -1 -3 -10 4 -10 2 -16 -6 -14 -7 1 -11 -6 -11 -15 1 -11 -5
-18 -15 -18 -14 0 -14 -2 -1 -10 13 -9 8 -14 -12 -12 -3 1 -9 -5 -12 -13 -3
-8 0 -15 7 -15 7 0 -1 -11 -18 -25 -22 -18 -24 -23 -10 -19 15 5 12 -1 -10
-19 -16 -14 -30 -29 -30 -34 -1 -4 -6 -17 -12 -28 -20 -37 3 -94 32 -78 5 4 7
2 2 -2 -4 -5 5 -17 20 -28 16 -10 20 -16 10 -13 -11 3 -16 2 -12 -4 3 -6 13
-10 21 -10 8 0 14 -4 14 -10 0 -5 5 -10 10 -10 15 0 52 -40 38 -40 -7 -1 -3
-6 10 -13 12 -7 19 -16 16 -20 -6 -6 0 -8 26 -10 9 0 40 -37 32 -37 -4 0 -12
3 -18 8 -5 4 -1 0 8 -10 10 -9 18 -21 18 -27 0 -6 6 -11 14 -11 8 0 17 -7 20
-16 5 -12 3 -14 -7 -8 -7 5 -5 1 6 -8 10 -10 16 -22 13 -27 -3 -5 9 -23 28
-39 19 -17 32 -33 29 -36 -4 -3 -1 -6 6 -6 7 0 9 -4 6 -10 -3 -5 -1 -10 5 -10
7 0 10 -7 6 -15 -3 -9 3 -20 14 -27 11 -7 20 -18 20 -25 0 -7 5 -13 11 -13 5
0 7 -4 4 -10 -3 -5 -1 -10 5 -10 6 0 8 -4 5 -10 -3 -5 0 -10 7 -10 9 0 9 -3
-2 -10 -13 -8 -12 -10 4 -10 12 0 16 -5 12 -15 -3 -8 4 -21 15 -29 15 -10 17
-15 7 -19 -10 -4 -10 -6 0 -6 6 -1 12 -8 12 -16 0 -8 4 -15 10 -15 5 0 9 -3 9
-7 -4 -26 2 -43 14 -37 8 5 8 2 -2 -9 -9 -11 -10 -17 -2 -17 6 0 11 -11 11
-25 0 -14 3 -25 8 -25 4 0 12 -11 19 -25 8 -19 8 -23 0 -18 -7 3 -3 -3 7 -15
11 -12 16 -22 11 -22 -4 0 -2 -6 4 -13 6 -8 8 -17 4 -20 -3 -4 0 -7 7 -7 11 0
11 -3 2 -12 -9 -9 -8 -16 6 -32 12 -14 13 -17 2 -11 -12 6 -13 5 -2 -6 6 -7
12 -28 12 -46 0 -18 4 -33 8 -33 5 0 10 -17 11 -37 2 -21 3 -46 4 -55 1 -10 5
-18 10 -18 4 0 7 -144 7 -320 -1 -221 -5 -318 -12 -314 -6 4 -9 1 -6 -7 3 -8
1 -29 -4 -48 -7 -25 -6 -36 4 -43 9 -7 8 -8 -6 -4 -13 5 -17 2 -12 -9 3 -8 1
-15 -4 -15 -5 0 -7 -7 -4 -15 4 -9 0 -15 -7 -15 -12 0 -12 -2 0 -9 9 -6 10
-11 2 -15 -6 -4 -9 -12 -6 -17 4 -5 2 -9 -4 -9 -6 0 -8 -7 -5 -15 4 -8 1 -22
-6 -30 -6 -8 -9 -19 -6 -24 4 -5 1 -13 -5 -16 -5 -4 -8 -14 -5 -22 4 -9 2 -11
-6 -7 -8 5 -9 2 -5 -10 4 -10 1 -19 -9 -23 -12 -5 -13 -7 -3 -14 11 -6 10 -9
-3 -14 -9 -4 -14 -13 -11 -21 3 -8 0 -14 -6 -14 -6 0 -11 -5 -11 -11 0 -5 6
-7 13 -3 6 4 4 -2 -6 -14 -11 -11 -16 -26 -12 -32 4 -7 -2 -14 -14 -17 -16 -4
-19 -9 -11 -18 8 -9 6 -14 -5 -19 -8 -3 -15 -9 -14 -13 4 -21 -2 -33 -13 -27
-8 5 -9 0 -6 -14 4 -12 2 -20 -3 -16 -8 4 -14 -26 -10 -49 1 -5 -3 -6 -9 -2
-18 11 -32 -5 -18 -23 11 -13 11 -14 -1 -7 -11 6 -13 4 -8 -9 4 -9 3 -15 -2
-12 -4 3 -17 -4 -27 -16 -11 -12 -13 -18 -7 -14 9 5 11 2 7 -8 -3 -9 -14 -16
-23 -16 -12 0 -13 -2 -4 -8 10 -6 10 -12 -2 -28 -15 -19 -15 -19 -10 1 4 13 1
11 -7 -5 -7 -14 -22 -33 -33 -42 -11 -10 -16 -17 -11 -18 6 0 1 -7 -10 -16
-10 -8 -12 -13 -4 -9 10 4 9 2 -2 -8 -10 -8 -15 -17 -11 -20 3 -4 -2 -7 -12
-7 -14 0 -15 -3 -5 -15 10 -12 8 -14 -8 -10 -12 2 -28 -5 -39 -17 -10 -12 -12
-18 -5 -14 7 4 12 1 12 -9 0 -9 -4 -14 -9 -11 -8 6 -36 -43 -32 -57 1 -5 -2
-6 -6 -4 -16 9 -55 -13 -50 -27 3 -8 -1 -20 -9 -26 -9 -8 -14 -9 -14 -2 0 6 6
13 13 15 9 4 9 6 -1 6 -12 1 -33 -38 -26 -50 2 -3 -3 -6 -11 -6 -12 0 -12 3
-2 16 11 14 10 14 -6 2 -9 -7 -16 -21 -15 -30 2 -11 -3 -15 -16 -13 -13 3 -17
-1 -13 -12 3 -8 -1 -20 -9 -26 -10 -9 -14 -9 -14 -1 0 6 5 11 12 11 6 0 9 2 6
5 -7 7 -39 -5 -34 -14 2 -3 -8 -17 -22 -31 -14 -14 -20 -18 -14 -9 9 12 9 16
-3 16 -7 0 -14 -3 -13 -6 2 -20 -4 -44 -9 -33 -3 9 -12 5 -29 -13 -13 -14 -28
-24 -33 -20 -5 3 -21 -9 -36 -27 -15 -18 -24 -26 -20 -18 4 8 -3 4 -15 -10
-12 -14 -18 -18 -14 -10 5 10 1 9 -14 -3 -11 -11 -25 -16 -31 -12 -7 4 -8 0
-4 -11 4 -11 3 -15 -4 -11 -17 11 -42 -3 -36 -19 3 -10 0 -12 -10 -9 -8 4 -17
-1 -21 -11 -5 -14 -9 -14 -24 -3 -9 7 -14 10 -10 5 10 -11 -14 -35 -29 -29 -8
3 -13 -3 -13 -13 0 -15 -2 -16 -9 -5 -7 11 -12 10 -26 -6 -11 -13 -25 -19 -38
-15 -13 3 -18 1 -14 -5 4 -6 0 -13 -8 -17 -8 -3 -15 0 -15 7 0 7 -5 4 -10 -5
-6 -10 -19 -15 -30 -13 -11 2 -18 0 -15 -6 4 -5 -1 -9 -9 -9 -9 0 -16 -4 -16
-8 0 -4 -12 -9 -27 -10 -15 -1 -30 -8 -35 -15 -6 -9 -8 -9 -8 2 0 11 -5 10
-20 -4 -11 -10 -20 -15 -20 -10 0 4 -8 1 -17 -6 -14 -12 -16 -12 -8 0 5 8 -7
4 -25 -9 -18 -13 -30 -18 -25 -10 6 10 4 11 -6 4 -18 -11 -38 -16 -66 -15 -13
0 -23 -5 -23 -12 0 -8 -4 -7 -10 3 -7 11 -10 11 -10 2 0 -7 -4 -11 -9 -7 -5 3
-13 0 -17 -6 -4 -8 -9 -7 -15 2 -5 9 -9 10 -9 3 0 -7 -7 -15 -16 -18 -10 -4
-13 -2 -8 7 6 9 4 9 -8 -1 -12 -9 -89 -12 -327 -12 -171 1 -311 4 -311 8 0 7
-30 12 -77 15 -7 0 -13 3 -13 7 0 12 -92 11 -108 -2 -12 -9 -14 -10 -8 -1 5 9
2 11 -8 7 -8 -3 -13 -14 -11 -26 4 -16 2 -18 -10 -8 -12 10 -15 9 -15 -4 0
-11 -5 -14 -12 -10 -8 5 -9 2 -5 -10 6 -14 3 -17 -9 -12 -12 5 -15 2 -10 -9 3
-9 -1 -18 -9 -21 -8 -4 -12 -11 -8 -17 4 -6 1 -7 -7 -2 -10 6 -9 11 6 23 12 9
13 13 4 10 -8 -3 -21 -15 -27 -29 -7 -13 -18 -23 -23 -21 -6 1 -10 -6 -8 -15
2 -12 -4 -18 -16 -18 -11 0 -21 -7 -23 -15 -4 -13 -3 -13 7 0 10 13 11 13 7 0
-2 -8 -11 -14 -20 -12 -11 2 -15 -2 -11 -12 3 -8 0 -17 -7 -22 -7 -4 -10 -3
-5 4 3 6 2 14 -4 17 -6 4 -10 3 -9 -2 3 -20 -2 -34 -11 -28 -6 4 -10 3 -9 -2
1 -4 1 -15 0 -23 -1 -12 -3 -12 -10 -2 -7 11 -9 11 -14 -2 -4 -9 -1 -16 5 -16
6 0 5 -6 -3 -17 -10 -11 -10 -14 -1 -9 7 4 12 2 12 -4 0 -6 5 -8 10 -5 6 3 10
1 10 -4 0 -6 14 -11 30 -11 17 0 30 -5 30 -11 0 -8 4 -9 13 0 8 6 17 8 21 4
13 -14 76 -31 69 -19 -8 12 28 -14 39 -29 5 -6 8 -4 8 5 0 12 2 12 9 2 4 -8
11 -13 15 -13 30 4 76 -1 72 -7 -3 -5 1 -9 9 -9 8 0 11 5 8 11 -3 6 0 5 8 -1
7 -7 32 -13 56 -13 28 0 43 -4 43 -12 0 -9 4 -8 10 2 6 10 10 11 10 3 0 -17
595 -19 606 -2 4 8 9 7 15 -2 6 -9 9 -10 9 -2 0 10 13 13 85 14 10 0 26 5 34
12 12 10 13 9 6 -3 -8 -13 -7 -13 8 -1 9 7 17 10 17 6 0 -4 6 -3 13 2 6 6 20
9 30 8 10 -2 14 1 10 8 -4 6 0 8 10 4 10 -3 17 -2 17 2 0 5 9 7 20 4 13 -3 20
0 20 8 0 11 2 11 10 -1 5 -8 10 -10 10 -5 0 6 8 11 18 12 31 2 47 8 54 18 5 6
8 4 8 -5 0 -12 2 -12 9 -2 4 7 19 14 32 15 13 1 34 8 45 14 12 7 24 9 28 6 3
-3 6 0 6 8 0 12 2 12 10 -1 7 -12 11 -10 19 10 5 14 10 20 10 14 1 -6 8 -11
16 -11 8 0 12 4 9 9 -5 7 27 13 49 9 5 -1 6 2 4 6 -3 5 6 13 19 20 18 8 23 8
18 0 -3 -7 2 -3 11 8 9 11 25 19 37 17 12 -2 18 1 14 7 -4 6 4 9 21 8 17 -1
27 3 26 10 -1 6 4 14 13 17 8 3 12 1 9 -4 -3 -5 1 -7 9 -4 8 3 17 13 21 22 5
14 7 14 15 2 7 -11 10 -12 10 -2 0 8 5 10 13 6 7 -5 7 -2 -2 10 -8 9 -10 16
-5 15 25 -4 45 2 38 13 -5 7 -3 8 5 4 7 -5 18 0 26 10 11 15 15 16 15 4 0 -9
6 -5 15 10 9 16 15 19 15 10 1 -8 6 -4 11 10 8 20 12 22 19 10 9 -13 14 -7 12
12 -1 3 5 9 14 12 9 4 12 2 8 -5 -4 -8 0 -7 15 0 11 7 21 18 21 26 0 8 6 14
13 12 6 -1 11 3 10 10 -1 6 4 14 13 17 10 4 13 2 8 -7 -6 -9 -5 -9 8 0 8 7 18
9 22 5 4 -4 7 -2 6 3 -5 24 1 34 17 28 12 -5 14 -3 8 7 -6 10 -4 12 9 7 12 -5
16 -2 14 10 -2 9 4 18 12 20 13 4 13 3 0 -7 -13 -10 -13 -11 0 -7 8 2 14 11
14 20 -1 9 5 18 13 21 9 4 12 1 8 -7 -4 -6 3 -1 15 13 12 14 18 18 14 10 -6
-12 -5 -13 8 -3 8 7 18 9 23 5 4 -4 2 4 -5 17 -8 15 -8 21 -1 17 6 -4 11 -1
11 6 0 9 3 9 10 -2 9 -13 14 -7 11 13 0 4 4 7 9 7 5 0 9 6 7 13 -1 6 4 11 11
10 6 -2 12 2 12 8 0 5 4 8 9 4 5 -3 12 -1 16 5 3 5 1 10 -5 10 -7 0 -5 6 4 15
19 20 27 19 20 -2 -5 -14 -4 -15 4 -4 6 8 9 23 7 34 -4 16 -2 17 12 5 12 -9
15 -9 9 0 -4 7 -2 12 4 12 6 0 9 4 5 9 -3 5 0 13 6 17 8 4 9 3 5 -4 -4 -7 -2
-12 3 -12 6 0 12 5 12 10 1 6 2 14 3 19 0 5 5 13 10 18 6 5 6 2 1 -7 -8 -13
-6 -13 8 -1 9 7 15 17 12 21 -3 4 3 11 12 14 15 6 15 8 3 16 -13 9 -13 10 0
11 8 1 19 1 24 0 5 -1 6 5 3 13 -7 19 3 28 18 16 9 -8 12 -4 10 15 -2 14 1 23
6 19 5 -3 6 -11 2 -17 -4 -7 -1 -7 9 1 9 8 14 20 11 28 -3 9 2 14 13 15 11 0
14 3 7 5 -7 3 -9 12 -6 20 5 13 7 13 14 2 7 -11 9 -10 9 1 0 8 8 23 18 34 9
11 11 17 5 13 -9 -5 -11 -2 -7 8 3 8 12 12 19 10 7 -3 16 0 21 7 4 8 3 10 -4
5 -7 -4 -12 -3 -12 3 0 5 9 13 20 16 11 4 18 10 15 15 -3 5 1 11 7 13 10 4 10
6 0 6 -10 1 -10 5 2 17 9 8 13 21 9 27 -4 7 0 6 10 -1 14 -12 16 -11 12 7 -2
14 1 21 11 21 8 0 13 4 10 9 -4 5 0 12 6 14 10 4 10 6 1 6 -7 1 -13 6 -13 12
0 5 5 7 10 4 6 -3 10 -1 10 5 0 6 5 8 11 4 8 -4 9 1 4 16 -4 14 -3 20 2 17 6
-4 16 6 24 21 7 15 20 35 28 45 9 11 10 17 3 17 -7 0 -12 5 -12 11 0 5 5 7 10
4 6 -3 10 -1 10 4 0 21 2 26 12 39 6 6 7 12 2 12 -4 0 1 7 12 16 10 8 12 12 4
8 -10 -5 -8 1 5 15 11 13 20 28 21 34 0 7 2 20 2 30 1 10 6 16 11 12 6 -3 8 6
5 21 -3 15 -1 23 5 20 5 -4 12 -2 16 4 3 5 0 10 -7 10 -8 0 -9 3 -3 8 6 4 16
18 23 31 11 19 11 22 0 15 -11 -6 -11 -5 0 9 8 9 11 21 7 27 -3 5 -1 10 5 10
7 0 9 7 6 16 -3 8 -2 12 4 9 5 -3 9 3 9 12 1 36 5 53 11 53 3 0 7 10 7 23 2
30 7 49 17 66 7 10 5 12 -3 6 -9 -5 -10 -3 -2 11 15 29 24 56 27 87 1 16 5 35
8 42 3 8 0 16 -7 19 -9 3 -8 5 1 5 7 1 10 6 7 11 -3 6 0 10 7 10 9 0 9 3 -2
10 -10 6 -11 10 -2 10 18 0 18 640 0 640 -9 0 -8 4 2 10 11 7 11 10 2 10 -7 0
-12 6 -11 13 5 39 -2 107 -11 102 -14 -9 -13 8 2 23 9 9 9 12 -2 12 -7 0 -10
3 -7 7 4 3 2 12 -4 20 -6 7 -8 13 -4 13 4 0 1 8 -6 17 -12 15 -12 16 1 8 12
-6 13 -5 3 6 -7 7 -13 24 -13 37 0 13 -4 20 -10 17 -14 -9 -13 8 2 23 9 9 9
12 0 12 -7 0 -12 11 -12 25 0 14 -6 25 -12 25 -10 0 -10 2 -1 8 9 6 7 12 -7
22 -14 10 -17 17 -8 27 6 7 6 13 2 13 -5 0 -15 9 -22 21 -9 14 -9 19 -2 14 6
-4 4 7 -5 25 -9 17 -14 34 -11 37 3 3 -4 19 -16 36 -12 17 -17 28 -12 24 6 -3
11 0 11 8 0 8 -4 12 -9 9 -4 -3 -8 2 -8 10 0 9 -4 16 -10 16 -5 0 -9 6 -7 13
1 6 -3 11 -9 10 -6 -1 -11 4 -11 12 0 8 4 12 9 9 4 -3 8 0 8 5 0 6 -7 11 -15
11 -8 0 -17 11 -21 25 -3 14 -11 25 -18 25 -6 0 -4 5 4 10 10 6 11 10 3 10 -7
0 -13 7 -13 15 0 8 -5 15 -11 15 -6 0 -9 7 -6 15 4 8 1 17 -5 21 -7 5 -8 2 -3
-7 5 -8 4 -11 -1 -6 -5 5 -9 16 -9 25 0 9 -5 17 -12 17 -6 0 -15 4 -20 9 -5 5
-3 6 5 2 7 -4 12 -1 12 9 0 8 -10 20 -22 25 -21 8 -21 9 -3 10 16 0 17 2 5 9
-8 6 -19 7 -25 3 -5 -3 -4 2 4 11 12 15 11 17 -4 17 -11 0 -15 5 -11 16 3 8 2
12 -4 9 -6 -3 -10 -1 -10 5 0 6 -5 8 -12 4 -7 -5 -8 -3 -3 6 5 8 2 18 -9 26
-9 6 -18 21 -19 33 -1 13 -8 21 -19 21 -10 0 -17 3 -17 8 3 19 -2 33 -10 28
-11 -7 -23 22 -14 36 3 7 1 8 -5 4 -7 -4 -12 -1 -12 8 0 9 -5 16 -11 16 -5 0
-8 4 -5 9 3 5 -5 12 -19 15 -16 4 -25 13 -25 27 0 11 -4 17 -10 14 -5 -3 -10
0 -10 7 0 9 -3 9 -10 -2 -5 -8 -10 -10 -10 -4 0 5 5 15 12 22 9 9 8 12 -6 12
-9 0 -15 3 -13 8 6 8 -19 33 -26 26 -2 -3 -7 7 -11 21 -4 17 -13 25 -29 25
-18 0 -19 2 -7 10 13 9 13 10 0 11 -8 1 -19 0 -25 -1 -5 -1 -7 1 -4 5 8 7 -42
61 -53 57 -4 -1 -4 6 -1 15 4 11 3 14 -5 9 -7 -4 -12 -2 -12 3 0 6 -9 11 -21
11 -13 0 -18 4 -13 13 6 9 4 9 -8 -1 -9 -7 -18 -9 -20 -4 -1 5 -12 0 -23 -11z
m-121 -242 c-4 -8 -11 -15 -16 -15 -6 0 -5 6 2 15 7 8 14 15 16 15 2 0 1 -7
-2 -15z m280 -454 c-6 -6 -34 20 -34 32 0 6 8 2 19 -9 10 -10 17 -21 15 -23z
m61 -99 c-3 -3 -11 0 -18 7 -9 10 -8 11 6 5 10 -3 15 -9 12 -12z m-95 -2166
c0 -3 -4 -8 -10 -11 -5 -3 -10 -1 -10 4 0 6 5 11 10 11 6 0 10 -2 10 -4z
m-480 -475 c0 -5 -7 -12 -16 -15 -14 -5 -15 -4 -4 9 14 17 20 19 20 6z"/>
<path d="M3036 2082 l-19 -27 24 22 c12 12 21 24 18 27 -2 2 -13 -8 -23 -22z"/>
<path d="M2411 1460 c-13 -11 -19 -20 -14 -20 6 0 18 9 28 20 23 25 17 25 -14
0z"/>
<path d="M3890 1060 c-6 -11 -8 -20 -6 -20 3 0 10 9 16 20 6 11 8 20 6 20 -3
0 -10 -9 -16 -20z"/>
<path d="M1931 980 c-13 -11 -19 -20 -14 -20 6 0 18 9 28 20 23 25 17 25 -14
0z"/>
<path d="M1451 500 c-13 -11 -19 -20 -14 -20 6 0 18 9 28 20 23 25 17 25 -14
0z"/>
<path d="M1116 162 l-19 -27 24 22 c12 12 21 24 18 27 -2 2 -13 -8 -23 -22z"/>
</g>
</svg>
